<mxfile host="65bd71144e">
    <diagram id="ShzRySxBLQCe2M1I8mqF" name="第 1 页">
        <mxGraphModel dx="1316" dy="731" grid="1" gridSize="10" guides="1" tooltips="1" connect="1" arrows="1" fold="1" page="1" pageScale="1" pageWidth="827" pageHeight="1169" math="0" shadow="0">
            <root>
                <mxCell id="0"/>
                <mxCell id="1" parent="0"/>
                <mxCell id="2" value="&lt;p style=&quot;margin: 4px 0px 0px ; text-align: center&quot;&gt;onCreate()&lt;/p&gt;" style="verticalAlign=middle;align=center;overflow=fill;fontSize=12;fontFamily=Helvetica;html=1;rounded=1;fontStyle=1;strokeWidth=3;fillColor=#E6FFCC;labelBackgroundColor=none;" parent="1" vertex="1">
                    <mxGeometry x="180" y="160" width="110" height="29" as="geometry"/>
                </mxCell>
                <mxCell id="3" value="Launch&#10;Activity" style="whiteSpace=wrap;align=center;verticalAlign=middle;fontStyle=1;strokeWidth=3;fillColor=#FFFFCC;labelBackgroundColor=none;" parent="1" vertex="1">
                    <mxGeometry x="190" y="50" width="90" height="60" as="geometry"/>
                </mxCell>
                <mxCell id="4" value="Activity Running" style="shape=process;whiteSpace=wrap;align=center;verticalAlign=middle;size=0.0475;fontStyle=1;strokeWidth=3;fillColor=#FFCCCC;labelBackgroundColor=none;" parent="1" vertex="1">
                    <mxGeometry x="110" y="360" width="250" height="50" as="geometry"/>
                </mxCell>
                <mxCell id="5" value="" style="edgeStyle=none;noEdgeStyle=1;strokeColor=#990000;strokeWidth=2;labelBackgroundColor=none;" parent="1" source="3" target="2" edge="1">
                    <mxGeometry width="100" height="100" relative="1" as="geometry">
                        <mxPoint x="-143.5" y="240" as="sourcePoint"/>
                        <mxPoint x="-43.5" y="140" as="targetPoint"/>
                    </mxGeometry>
                </mxCell>
                <mxCell id="6" value="&lt;p style=&quot;margin: 4px 0px 0px ; text-align: center&quot;&gt;onStart()&lt;/p&gt;" style="verticalAlign=middle;align=center;overflow=fill;fontSize=12;fontFamily=Helvetica;html=1;rounded=1;fontStyle=1;strokeWidth=3;fillColor=#E6FFCC;labelBackgroundColor=none;" parent="1" vertex="1">
                    <mxGeometry x="180" y="220" width="110" height="29" as="geometry"/>
                </mxCell>
                <mxCell id="7" value="" style="edgeStyle=none;noEdgeStyle=1;strokeColor=#990000;strokeWidth=2;exitX=0.5;exitY=1;exitDx=0;exitDy=0;entryX=0.5;entryY=0;entryDx=0;entryDy=0;labelBackgroundColor=none;" parent="1" source="2" target="6" edge="1">
                    <mxGeometry width="100" height="100" relative="1" as="geometry">
                        <mxPoint x="245" y="120" as="sourcePoint"/>
                        <mxPoint x="245" y="181" as="targetPoint"/>
                    </mxGeometry>
                </mxCell>
                <mxCell id="8" value="&lt;p style=&quot;margin: 4px 0px 0px ; text-align: center&quot;&gt;onResume()&lt;/p&gt;&lt;p style=&quot;margin: 0px ; margin-top: 4px ; text-align: center ; text-decoration: underline&quot;&gt;&lt;br&gt;&lt;/p&gt;" style="verticalAlign=middle;align=center;overflow=fill;fontSize=12;fontFamily=Helvetica;html=1;rounded=1;fontStyle=1;strokeWidth=3;fillColor=#E6FFCC;labelBackgroundColor=none;" parent="1" vertex="1">
                    <mxGeometry x="180" y="290" width="110" height="29" as="geometry"/>
                </mxCell>
                <mxCell id="9" value="" style="edgeStyle=none;noEdgeStyle=1;strokeColor=#990000;strokeWidth=2;exitX=0.5;exitY=1;exitDx=0;exitDy=0;entryX=0.5;entryY=0;entryDx=0;entryDy=0;labelBackgroundColor=none;" parent="1" source="6" target="8" edge="1">
                    <mxGeometry width="100" height="100" relative="1" as="geometry">
                        <mxPoint x="235" y="270" as="sourcePoint"/>
                        <mxPoint x="245" y="251" as="targetPoint"/>
                    </mxGeometry>
                </mxCell>
                <mxCell id="10" value="" style="edgeStyle=none;noEdgeStyle=1;strokeColor=#990000;strokeWidth=2;exitX=0.5;exitY=1;exitDx=0;exitDy=0;labelBackgroundColor=none;" parent="1" source="8" target="4" edge="1">
                    <mxGeometry width="100" height="100" relative="1" as="geometry">
                        <mxPoint x="245" y="210" as="sourcePoint"/>
                        <mxPoint x="245" y="242" as="targetPoint"/>
                    </mxGeometry>
                </mxCell>
                <mxCell id="11" value="&lt;p style=&quot;margin: 4px 0px 0px ; text-align: center&quot;&gt;onPause()&lt;/p&gt;" style="verticalAlign=middle;align=center;overflow=fill;fontSize=12;fontFamily=Helvetica;html=1;rounded=1;fontStyle=1;strokeWidth=3;fillColor=#E6FFCC;labelBackgroundColor=none;" parent="1" vertex="1">
                    <mxGeometry x="180" y="460" width="110" height="29" as="geometry"/>
                </mxCell>
                <mxCell id="12" value="&#10;" style="text;spacingTop=-5;align=center;labelBackgroundColor=none;" parent="1" vertex="1">
                    <mxGeometry x="90" y="420" width="20" height="20" as="geometry"/>
                </mxCell>
                <mxCell id="13" value="&lt;p style=&quot;margin: 4px 0px 0px ; text-align: center&quot;&gt;onStop()&lt;/p&gt;&lt;p style=&quot;margin: 4px 0px 0px ; text-align: center&quot;&gt;&lt;br&gt;&lt;/p&gt;" style="verticalAlign=middle;align=center;overflow=fill;fontSize=12;fontFamily=Helvetica;html=1;rounded=1;fontStyle=1;strokeWidth=3;fillColor=#E6FFCC;labelBackgroundColor=none;" parent="1" vertex="1">
                    <mxGeometry x="180" y="545.5" width="110" height="29" as="geometry"/>
                </mxCell>
                <mxCell id="14" value="" style="endArrow=classic;html=1;rounded=1;exitX=0.5;exitY=1;exitDx=0;exitDy=0;entryX=0.5;entryY=0;entryDx=0;entryDy=0;strokeColor=#990000;strokeWidth=2;edgeStyle=elbowEdgeStyle;labelBackgroundColor=none;" parent="1" source="4" target="11" edge="1">
                    <mxGeometry relative="1" as="geometry">
                        <mxPoint x="206.5" y="420" as="sourcePoint"/>
                        <mxPoint x="306.5" y="420" as="targetPoint"/>
                    </mxGeometry>
                </mxCell>
                <mxCell id="20" value="" style="endArrow=classic;html=1;rounded=1;exitX=0.5;exitY=1;exitDx=0;exitDy=0;entryX=0.5;entryY=0;entryDx=0;entryDy=0;strokeColor=#990000;strokeWidth=2;edgeStyle=elbowEdgeStyle;labelBackgroundColor=none;" parent="1" source="13" target="22" edge="1">
                    <mxGeometry relative="1" as="geometry">
                        <mxPoint x="234.57999999999998" y="590" as="sourcePoint"/>
                        <mxPoint x="234.57999999999998" y="650" as="targetPoint"/>
                    </mxGeometry>
                </mxCell>
                <mxCell id="22" value="&lt;p style=&quot;margin: 4px 0px 0px ; text-align: center&quot;&gt;onDestroy()&lt;/p&gt;&lt;p style=&quot;margin: 4px 0px 0px ; text-align: center&quot;&gt;&lt;br&gt;&lt;/p&gt;" style="verticalAlign=middle;align=center;overflow=fill;fontSize=12;fontFamily=Helvetica;html=1;rounded=1;fontStyle=1;strokeWidth=3;fillColor=#E6FFCC;labelBackgroundColor=none;" parent="1" vertex="1">
                    <mxGeometry x="180" y="630" width="110" height="29" as="geometry"/>
                </mxCell>
                <mxCell id="23" value="" style="edgeStyle=elbowEdgeStyle;rounded=1;orthogonalLoop=1;jettySize=auto;html=1;strokeColor=#990000;strokeWidth=2;labelBackgroundColor=none;" parent="1" source="24" target="6" edge="1">
                    <mxGeometry relative="1" as="geometry"/>
                </mxCell>
                <mxCell id="24" value="&lt;p style=&quot;margin: 4px 0px 0px ; text-align: center&quot;&gt;onRestart()&lt;/p&gt;" style="verticalAlign=middle;align=center;overflow=fill;fontSize=12;fontFamily=Helvetica;html=1;rounded=1;fontStyle=1;strokeWidth=3;fillColor=#E6FFCC;labelBackgroundColor=none;" parent="1" vertex="1">
                    <mxGeometry x="346.5" y="220" width="110" height="29" as="geometry"/>
                </mxCell>
                <mxCell id="25" style="edgeStyle=elbowEdgeStyle;rounded=1;orthogonalLoop=1;jettySize=auto;html=1;exitX=0.5;exitY=1;exitDx=0;exitDy=0;strokeColor=#990000;strokeWidth=2;labelBackgroundColor=none;" parent="1" source="24" target="24" edge="1">
                    <mxGeometry relative="1" as="geometry"/>
                </mxCell>
                <mxCell id="32" value="" style="endArrow=classic;html=1;rounded=1;entryX=0.5;entryY=0;entryDx=0;entryDy=0;strokeColor=#990000;strokeWidth=2;exitX=0.5;exitY=1;exitDx=0;exitDy=0;labelBackgroundColor=none;" parent="1" source="11" target="13" edge="1">
                    <mxGeometry relative="1" as="geometry">
                        <mxPoint x="336.5" y="490" as="sourcePoint"/>
                        <mxPoint x="336.5" y="550" as="targetPoint"/>
                    </mxGeometry>
                </mxCell>
                <mxCell id="33" value="&lt;span style=&quot;&quot;&gt;the activity no &lt;br&gt;longer visible&lt;br&gt;&lt;/span&gt;" style="edgeLabel;resizable=0;html=1;align=center;verticalAlign=middle;labelBackgroundColor=none;" parent="32" connectable="0" vertex="1">
                    <mxGeometry relative="1" as="geometry"/>
                </mxCell>
                <mxCell id="34" value="Activity&#10;Shutdown" style="whiteSpace=wrap;align=center;verticalAlign=middle;fontStyle=1;strokeWidth=3;fillColor=#FFFFCC;labelBackgroundColor=none;" parent="1" vertex="1">
                    <mxGeometry x="190" y="710" width="90" height="60" as="geometry"/>
                </mxCell>
                <mxCell id="35" value="" style="edgeStyle=none;noEdgeStyle=1;strokeColor=#990000;strokeWidth=2;exitX=0.5;exitY=1;exitDx=0;exitDy=0;labelBackgroundColor=none;" parent="1" source="22" target="34" edge="1">
                    <mxGeometry width="100" height="100" relative="1" as="geometry">
                        <mxPoint x="588" y="510" as="sourcePoint"/>
                        <mxPoint x="456.5" y="660" as="targetPoint"/>
                    </mxGeometry>
                </mxCell>
                <mxCell id="36" value="Activity1" style="swimlane;labelBackgroundColor=none;swimlaneFillColor=none;fontSize=15;" parent="1" vertex="1">
                    <mxGeometry x="40" y="20" width="490" height="760" as="geometry"/>
                </mxCell>
                <mxCell id="101" value="&lt;p style=&quot;margin: 4px 0px 0px ; text-align: center&quot;&gt;startActivity()&lt;/p&gt;" style="verticalAlign=middle;align=center;overflow=fill;fontSize=12;fontFamily=Helvetica;html=1;rounded=1;fontStyle=1;strokeWidth=3;fillColor=#B8D9FF;labelBackgroundColor=none;strokeColor=#000000;" parent="36" vertex="1">
                    <mxGeometry x="180" y="380" width="110" height="29" as="geometry"/>
                </mxCell>
                <mxCell id="67" value="&lt;p style=&quot;margin: 4px 0px 0px ; text-align: center&quot;&gt;onCreate()&lt;/p&gt;" style="verticalAlign=middle;align=center;overflow=fill;fontSize=12;fontFamily=Helvetica;html=1;rounded=1;fontStyle=1;strokeWidth=3;fillColor=#E6FFCC;labelBackgroundColor=none;" parent="1" vertex="1">
                    <mxGeometry x="725" y="160" width="110" height="29" as="geometry"/>
                </mxCell>
                <mxCell id="68" value="Launch&#10;Activity" style="whiteSpace=wrap;align=center;verticalAlign=middle;fontStyle=1;strokeWidth=3;fillColor=#FFFFCC;labelBackgroundColor=none;" parent="1" vertex="1">
                    <mxGeometry x="735" y="50" width="90" height="60" as="geometry"/>
                </mxCell>
                <mxCell id="69" value="Activity Running" style="shape=process;whiteSpace=wrap;align=center;verticalAlign=middle;size=0.0475;fontStyle=1;strokeWidth=3;fillColor=#FFCCCC;labelBackgroundColor=none;" parent="1" vertex="1">
                    <mxGeometry x="655" y="360" width="250" height="50" as="geometry"/>
                </mxCell>
                <mxCell id="70" value="" style="edgeStyle=none;noEdgeStyle=1;strokeColor=#990000;strokeWidth=2;labelBackgroundColor=none;" parent="1" source="68" target="67" edge="1">
                    <mxGeometry width="100" height="100" relative="1" as="geometry">
                        <mxPoint x="401.5" y="240" as="sourcePoint"/>
                        <mxPoint x="501.5" y="140" as="targetPoint"/>
                    </mxGeometry>
                </mxCell>
                <mxCell id="71" value="&lt;p style=&quot;margin: 4px 0px 0px ; text-align: center&quot;&gt;onStart()&lt;/p&gt;" style="verticalAlign=middle;align=center;overflow=fill;fontSize=12;fontFamily=Helvetica;html=1;rounded=1;fontStyle=1;strokeWidth=3;fillColor=#E6FFCC;labelBackgroundColor=none;" parent="1" vertex="1">
                    <mxGeometry x="725" y="220" width="110" height="29" as="geometry"/>
                </mxCell>
                <mxCell id="72" value="" style="edgeStyle=none;noEdgeStyle=1;strokeColor=#990000;strokeWidth=2;exitX=0.5;exitY=1;exitDx=0;exitDy=0;entryX=0.5;entryY=0;entryDx=0;entryDy=0;labelBackgroundColor=none;" parent="1" source="67" target="71" edge="1">
                    <mxGeometry width="100" height="100" relative="1" as="geometry">
                        <mxPoint x="790" y="120" as="sourcePoint"/>
                        <mxPoint x="790" y="181" as="targetPoint"/>
                    </mxGeometry>
                </mxCell>
                <mxCell id="73" value="&lt;p style=&quot;margin: 4px 0px 0px ; text-align: center&quot;&gt;onResume()&lt;/p&gt;&lt;p style=&quot;margin: 0px ; margin-top: 4px ; text-align: center ; text-decoration: underline&quot;&gt;&lt;br&gt;&lt;/p&gt;" style="verticalAlign=middle;align=center;overflow=fill;fontSize=12;fontFamily=Helvetica;html=1;rounded=1;fontStyle=1;strokeWidth=3;fillColor=#E6FFCC;labelBackgroundColor=none;" parent="1" vertex="1">
                    <mxGeometry x="725" y="290" width="110" height="29" as="geometry"/>
                </mxCell>
                <mxCell id="74" value="" style="edgeStyle=none;noEdgeStyle=1;strokeColor=#990000;strokeWidth=2;exitX=0.5;exitY=1;exitDx=0;exitDy=0;entryX=0.5;entryY=0;entryDx=0;entryDy=0;labelBackgroundColor=none;" parent="1" source="71" target="73" edge="1">
                    <mxGeometry width="100" height="100" relative="1" as="geometry">
                        <mxPoint x="780" y="270" as="sourcePoint"/>
                        <mxPoint x="790" y="251" as="targetPoint"/>
                    </mxGeometry>
                </mxCell>
                <mxCell id="75" value="" style="edgeStyle=none;noEdgeStyle=1;strokeColor=#990000;strokeWidth=2;exitX=0.5;exitY=1;exitDx=0;exitDy=0;labelBackgroundColor=none;" parent="1" source="73" target="69" edge="1">
                    <mxGeometry width="100" height="100" relative="1" as="geometry">
                        <mxPoint x="790" y="210" as="sourcePoint"/>
                        <mxPoint x="790" y="242" as="targetPoint"/>
                    </mxGeometry>
                </mxCell>
                <mxCell id="76" value="&lt;p style=&quot;margin: 4px 0px 0px ; text-align: center&quot;&gt;onPause()&lt;/p&gt;" style="verticalAlign=middle;align=center;overflow=fill;fontSize=12;fontFamily=Helvetica;html=1;rounded=1;fontStyle=1;strokeWidth=3;fillColor=#E6FFCC;labelBackgroundColor=none;" parent="1" vertex="1">
                    <mxGeometry x="725" y="460" width="110" height="29" as="geometry"/>
                </mxCell>
                <mxCell id="77" value="&#10;" style="text;spacingTop=-5;align=center;labelBackgroundColor=none;" parent="1" vertex="1">
                    <mxGeometry x="635" y="420" width="20" height="20" as="geometry"/>
                </mxCell>
                <mxCell id="78" value="&lt;p style=&quot;margin: 4px 0px 0px ; text-align: center&quot;&gt;onStop()&lt;/p&gt;&lt;p style=&quot;margin: 4px 0px 0px ; text-align: center&quot;&gt;&lt;br&gt;&lt;/p&gt;" style="verticalAlign=middle;align=center;overflow=fill;fontSize=12;fontFamily=Helvetica;html=1;rounded=1;fontStyle=1;strokeWidth=3;fillColor=#E6FFCC;labelBackgroundColor=none;" parent="1" vertex="1">
                    <mxGeometry x="725" y="545.5" width="110" height="29" as="geometry"/>
                </mxCell>
                <mxCell id="79" value="" style="endArrow=classic;html=1;rounded=1;exitX=0.5;exitY=1;exitDx=0;exitDy=0;entryX=0.5;entryY=0;entryDx=0;entryDy=0;strokeColor=#990000;strokeWidth=2;edgeStyle=elbowEdgeStyle;labelBackgroundColor=none;" parent="1" source="69" target="76" edge="1">
                    <mxGeometry relative="1" as="geometry">
                        <mxPoint x="751.5" y="420" as="sourcePoint"/>
                        <mxPoint x="851.5" y="420" as="targetPoint"/>
                    </mxGeometry>
                </mxCell>
                <mxCell id="80" value="&lt;span style=&quot;font-size: 12px;&quot;&gt;Another Activity&lt;/span&gt;&lt;br style=&quot;padding: 0px; margin: 0px; font-size: 12px;&quot;&gt;&lt;span style=&quot;font-size: 12px;&quot;&gt;come into foreground&lt;/span&gt;" style="edgeLabel;resizable=0;html=1;align=center;verticalAlign=middle;labelBackgroundColor=none;" parent="79" connectable="0" vertex="1">
                    <mxGeometry relative="1" as="geometry">
                        <mxPoint y="-5" as="offset"/>
                    </mxGeometry>
                </mxCell>
                <mxCell id="85" value="" style="endArrow=classic;html=1;rounded=1;exitX=0.5;exitY=1;exitDx=0;exitDy=0;entryX=0.5;entryY=0;entryDx=0;entryDy=0;strokeColor=#990000;strokeWidth=2;edgeStyle=elbowEdgeStyle;labelBackgroundColor=none;" parent="1" source="78" target="87" edge="1">
                    <mxGeometry relative="1" as="geometry">
                        <mxPoint x="779.5799999999999" y="590" as="sourcePoint"/>
                        <mxPoint x="779.5799999999999" y="650" as="targetPoint"/>
                    </mxGeometry>
                </mxCell>
                <mxCell id="86" value="&lt;span style=&quot;&quot;&gt;Activity is finishing or &lt;br&gt;destroyed by system&lt;/span&gt;" style="edgeLabel;resizable=0;html=1;align=center;verticalAlign=middle;labelBackgroundColor=none;" parent="85" connectable="0" vertex="1">
                    <mxGeometry relative="1" as="geometry"/>
                </mxCell>
                <mxCell id="87" value="&lt;p style=&quot;margin: 4px 0px 0px ; text-align: center&quot;&gt;onDestroy()&lt;/p&gt;&lt;p style=&quot;margin: 4px 0px 0px ; text-align: center&quot;&gt;&lt;br&gt;&lt;/p&gt;" style="verticalAlign=middle;align=center;overflow=fill;fontSize=12;fontFamily=Helvetica;html=1;rounded=1;fontStyle=1;strokeWidth=3;fillColor=#E6FFCC;labelBackgroundColor=none;" parent="1" vertex="1">
                    <mxGeometry x="725" y="630" width="110" height="29" as="geometry"/>
                </mxCell>
                <mxCell id="90" style="edgeStyle=elbowEdgeStyle;rounded=1;orthogonalLoop=1;jettySize=auto;html=1;exitX=0.5;exitY=1;exitDx=0;exitDy=0;strokeColor=#990000;strokeWidth=2;labelBackgroundColor=none;" parent="1" edge="1">
                    <mxGeometry relative="1" as="geometry">
                        <mxPoint x="946.5" y="249" as="sourcePoint"/>
                        <mxPoint x="946.7142857142858" y="249" as="targetPoint"/>
                    </mxGeometry>
                </mxCell>
                <mxCell id="91" value="" style="endArrow=classic;html=1;rounded=1;entryX=0.5;entryY=0;entryDx=0;entryDy=0;strokeColor=#990000;strokeWidth=2;exitX=0.5;exitY=1;exitDx=0;exitDy=0;labelBackgroundColor=none;" parent="1" source="76" target="78" edge="1">
                    <mxGeometry relative="1" as="geometry">
                        <mxPoint x="881.5" y="490" as="sourcePoint"/>
                        <mxPoint x="881.5" y="550" as="targetPoint"/>
                    </mxGeometry>
                </mxCell>
                <mxCell id="92" value="&lt;span style=&quot;&quot;&gt;the activity no &lt;br&gt;longer visible&lt;br&gt;&lt;/span&gt;" style="edgeLabel;resizable=0;html=1;align=center;verticalAlign=middle;labelBackgroundColor=none;" parent="91" connectable="0" vertex="1">
                    <mxGeometry relative="1" as="geometry"/>
                </mxCell>
                <mxCell id="93" value="Activity&#10;Shutdown" style="whiteSpace=wrap;align=center;verticalAlign=middle;fontStyle=1;strokeWidth=3;fillColor=#FFFFCC;labelBackgroundColor=none;" parent="1" vertex="1">
                    <mxGeometry x="735" y="710" width="90" height="60" as="geometry"/>
                </mxCell>
                <mxCell id="94" value="" style="edgeStyle=none;noEdgeStyle=1;strokeColor=#990000;strokeWidth=2;exitX=0.5;exitY=1;exitDx=0;exitDy=0;labelBackgroundColor=none;" parent="1" source="87" target="93" edge="1">
                    <mxGeometry width="100" height="100" relative="1" as="geometry">
                        <mxPoint x="1133" y="510" as="sourcePoint"/>
                        <mxPoint x="1001.5" y="660" as="targetPoint"/>
                    </mxGeometry>
                </mxCell>
                <mxCell id="95" value="Activity2" style="swimlane;labelBackgroundColor=none;startSize=23;fontSize=14;" parent="1" vertex="1">
                    <mxGeometry x="585" y="20" width="490" height="760" as="geometry"/>
                </mxCell>
                <mxCell id="120" value="&lt;p style=&quot;margin: 4px 0px 0px ; text-align: center&quot;&gt;onRestart()&lt;/p&gt;" style="verticalAlign=middle;align=center;overflow=fill;fontSize=12;fontFamily=Helvetica;html=1;rounded=1;fontStyle=1;strokeWidth=3;fillColor=#E6FFCC;labelBackgroundColor=none;" vertex="1" parent="95">
                    <mxGeometry x="365" y="200" width="110" height="29" as="geometry"/>
                </mxCell>
                <mxCell id="121" value="&lt;p style=&quot;margin: 4px 0px 0px ; text-align: center&quot;&gt;Click Back Button&lt;/p&gt;" style="verticalAlign=middle;align=center;overflow=fill;fontSize=12;fontFamily=Helvetica;html=1;rounded=1;fontStyle=1;strokeWidth=3;fillColor=#B8D9FF;labelBackgroundColor=none;strokeColor=#000000;" vertex="1" parent="95">
                    <mxGeometry x="245" y="380" width="110" height="29" as="geometry"/>
                </mxCell>
                <mxCell id="99" value="" style="endArrow=classic;html=1;labelBackgroundColor=none;edgeStyle=orthogonalEdgeStyle;curved=1;exitX=1;exitY=0.5;exitDx=0;exitDy=0;entryX=0;entryY=0.5;entryDx=0;entryDy=0;strokeWidth=2;" parent="1" source="11" target="68" edge="1">
                    <mxGeometry relative="1" as="geometry">
                        <mxPoint x="490" y="330" as="sourcePoint"/>
                        <mxPoint x="590" y="330" as="targetPoint"/>
                        <Array as="points">
                            <mxPoint x="490" y="475"/>
                            <mxPoint x="490" y="80"/>
                        </Array>
                    </mxGeometry>
                </mxCell>
                <mxCell id="118" value="" style="endArrow=classic;html=1;entryX=0;entryY=0.5;entryDx=0;entryDy=0;exitX=1;exitY=0.5;exitDx=0;exitDy=0;strokeWidth=2;" edge="1" parent="1" source="13" target="69">
                    <mxGeometry width="50" height="50" relative="1" as="geometry">
                        <mxPoint x="400" y="560" as="sourcePoint"/>
                        <mxPoint x="300" y="570" as="targetPoint"/>
                    </mxGeometry>
                </mxCell>
                <mxCell id="119" value="" style="endArrow=classic;html=1;entryX=0.939;entryY=0.074;entryDx=0;entryDy=0;exitX=0;exitY=0.5;exitDx=0;exitDy=0;entryPerimeter=0;strokeWidth=2;" edge="1" parent="1" source="73" target="13">
                    <mxGeometry width="50" height="50" relative="1" as="geometry">
                        <mxPoint x="735" y="307.25" as="sourcePoint"/>
                        <mxPoint x="300" y="570.0000000000002" as="targetPoint"/>
                    </mxGeometry>
                </mxCell>
                <mxCell id="122" value="" style="endArrow=classic;html=1;labelBackgroundColor=none;edgeStyle=orthogonalEdgeStyle;curved=1;exitX=0;exitY=0.5;exitDx=0;exitDy=0;entryX=1;entryY=0.5;entryDx=0;entryDy=0;strokeWidth=2;" edge="1" parent="1" source="76" target="24">
                    <mxGeometry relative="1" as="geometry">
                        <mxPoint x="300" y="484.5" as="sourcePoint"/>
                        <mxPoint x="745" y="90" as="targetPoint"/>
                        <Array as="points">
                            <mxPoint x="725" y="485"/>
                            <mxPoint x="560" y="485"/>
                            <mxPoint x="560" y="235"/>
                            <mxPoint x="457" y="235"/>
                        </Array>
                    </mxGeometry>
                </mxCell>
                <mxCell id="123" value="" style="endArrow=classic;html=1;entryX=0;entryY=0.25;entryDx=0;entryDy=0;exitX=1;exitY=0.5;exitDx=0;exitDy=0;strokeWidth=2;" edge="1" parent="1" source="8" target="78">
                    <mxGeometry width="50" height="50" relative="1" as="geometry">
                        <mxPoint x="735" y="314.5" as="sourcePoint"/>
                        <mxPoint x="293.2900000000002" y="557.646" as="targetPoint"/>
                    </mxGeometry>
                </mxCell>
                <mxCell id="125" value="" style="endArrow=classic;html=1;entryX=1;entryY=0.5;entryDx=0;entryDy=0;exitX=0;exitY=0.5;exitDx=0;exitDy=0;strokeWidth=2;" edge="1" parent="1" source="87" target="4">
                    <mxGeometry width="50" height="50" relative="1" as="geometry">
                        <mxPoint x="300" y="570" as="sourcePoint"/>
                        <mxPoint x="665" y="395" as="targetPoint"/>
                    </mxGeometry>
                </mxCell>
            </root>
        </mxGraphModel>
    </diagram>
</mxfile>